<svg width="235" height="234" viewBox="0 0 235 234" fill="none" xmlns="http://www.w3.org/2000/svg">
<path d="M109.644 0.264506C109.691 0.258048 109.738 0.251931 109.784 0.245813C143.227 -1.93091 176.424 10.4344 199.792 33.9391C229.489 63.8099 240.36 103.75 230.655 144.432C229.365 149.84 229.508 155.118 227.058 159.363C226.798 159.675 225.571 162.825 224.966 163.41C209.514 198.718 177.6 224.876 139.661 232.168C134.202 233.217 130.918 233.029 125.513 233.481C125.368 233.496 125.222 233.511 125.076 233.526C97.1426 235.861 69.325 227.844 46.9181 210.999C43.956 208.788 41.4402 206.119 38.5947 203.691C15.1604 183.697 2.39206 154.636 0.255566 124.465C-1.76994 93.958 8.30578 63.8819 28.2994 40.7528C49.5872 16.2533 77.2499 2.51954 109.644 0.264506Z" fill="#A37A7A"/>
<path d="M162.854 56.7297C175.259 65.1959 184.705 84.8104 175.715 98.8725C174.174 100.898 172.168 103.424 169.955 104.872C161.004 110.727 148.522 114.287 138.083 115.922C127.929 117.513 116.919 115.38 110.063 124.105C107.142 127.823 106.055 133.638 106.681 138.157C107.999 147.682 117.224 151.811 115.857 162.574L115.637 161.922L115.448 161.831L115.395 161.63C115.105 163.566 115.111 164.006 114.341 165.781L114.816 166.265C111.546 174.734 105.4 176.682 97.1485 177.699C95.0962 178.407 92.3492 177.416 90.8281 178.45C89.519 178.416 85.5897 177.826 84.1315 177.65C60.8471 175.273 52.5821 199.95 78.5319 202.525C80.4 202.711 86.4312 202.721 87.5445 203.642C89.5078 203.767 91.1261 202.693 93.0452 202.905C92.4097 203.663 91.033 203.88 89.8877 204.379L90.2629 204.722C91.225 204.544 92.1844 204.352 93.1407 204.145L93.0493 204.353C91.7599 204.795 90.5576 204.955 89.7661 205.891C86.6674 207.056 79.8063 206.944 76.2957 206.783C67.246 206.441 53.6434 201.583 54.6256 190.282C55.2903 182.636 60.9986 176.834 67.9467 174.293C76.6287 170.958 83.1864 174.711 92.2248 175.462C101.632 176.244 112.237 172.871 113.6 161.923C113.758 160.656 112.91 160.047 112.1 159.177C109.147 155.773 107.396 152.96 107.427 148.311L107.513 147.802C103.618 138.629 102.36 130.061 108.972 121.354C115.778 112.391 128.878 114.754 139.017 113.719L139.722 112.689C132.875 111.945 127.612 110.718 122.185 106.296C122.937 106.142 128.881 108.793 130.21 109.173C139.567 111.852 150.622 111.218 159.404 106.922C161.456 105.918 164.241 103.635 166.146 102.175C177.645 92.5839 174.638 80.9634 168.309 69.3885C168.029 67.561 167.92 68.2629 168.793 66.5856C168.083 65.617 167.409 64.4723 166.771 63.4435C166.424 63.1305 166.347 63.071 166.052 62.6866L166.45 62.4677C165.238 60.262 164.335 59.1132 162.493 57.2963L162.854 56.7297Z" fill="white"/>
<path d="M87.5443 203.642C83.9328 204.673 74.7818 204.307 70.928 203.65C66.4396 202.885 61.4803 200.839 58.8866 196.844C57.2911 194.427 56.7266 191.473 57.3179 188.637C59.1 180.323 69.5883 174.702 77.5553 175.313C80.1282 175.51 83.6942 176.447 86.2515 177.018C85.5562 177.257 84.8524 177.535 84.1312 177.65C60.8468 175.273 52.5818 199.95 78.5316 202.525C80.3997 202.711 86.431 202.721 87.5443 203.642Z" fill="#A37A7A"/>
<path d="M162.854 56.7297C175.259 65.1959 184.705 84.8104 175.715 98.8725C172.65 99.1301 172.677 101.661 170.587 101.363C170.474 100.761 172.21 98.2618 172.669 97.5579C179.179 87.5664 174.954 76.0194 168.794 66.5856C168.084 65.617 167.409 64.4723 166.771 63.4435C166.424 63.1305 166.347 63.071 166.052 62.6866L166.451 62.4677C165.238 60.262 164.335 59.1132 162.493 57.2963L162.854 56.7297Z" fill="white"/>
<path d="M166.771 63.4435C170.187 66.0136 173.679 71.8603 175.282 75.8202C178.467 83.6878 178.607 93.3051 172.183 99.644C171.606 100.214 171.047 100.69 170.587 101.363C170.474 100.761 172.211 98.2617 172.669 97.5579C179.18 87.5664 174.954 76.0193 168.794 66.5856C168.084 65.6169 167.409 64.4723 166.771 63.4435Z" fill="#A37A7A"/>
<path d="M107.513 147.802C109.33 149.157 114.247 155.621 112.881 157.764L112.099 159.177C109.147 155.773 107.396 152.96 107.427 148.311L107.513 147.802Z" fill="#A37A7A"/>
<path d="M107.427 148.311C108.751 150.325 110.818 156.753 112.881 157.764L112.099 159.177C109.147 155.773 107.396 152.96 107.427 148.311Z" fill="white"/>
<path d="M86.2521 177.018C90.4798 177.529 93.2852 177.357 97.1489 177.699C95.0966 178.407 92.3496 177.416 90.8285 178.449C89.5194 178.415 85.5901 177.826 84.1318 177.65C84.853 177.535 85.5568 177.257 86.2521 177.018Z" fill="white"/>
<path d="M139.722 112.689C141.715 112.537 142.687 112.689 144.642 112.932C143.118 113.188 140.438 113.709 139.018 113.719L139.722 112.689Z" fill="white"/>
<path d="M114.817 166.265L114.341 165.781C115.111 164.006 115.106 163.566 115.395 161.63L115.449 161.831L115.638 161.922L115.857 162.574C117.2 164.798 117.257 167.495 116.674 169.978C115.928 173.183 113.902 175.941 111.069 177.612C97.0141 185.999 81.038 172.26 68.2304 183.311C59.5059 190.838 66.0621 198.883 75.2359 200.597C82.9126 202.031 92.6417 202.298 99.7573 198.447C101.908 197.219 103.951 193.33 105.236 191.146C107.06 187.579 108.764 184.641 111.739 181.882C124.3 170.232 144.279 170.813 158.916 177.955C165.9 181.363 172.659 188.432 168.415 196.653C167.939 197.57 166.688 199.394 165.8 200.022C162.373 200.878 159.892 203.572 156.946 203.155C150.937 204.665 144.313 204.897 138.395 202.902C136.891 202.447 134.064 201.033 132.527 200.312L132.696 199.731L132.09 199.408L132.573 198.713C140.325 201.589 148.373 203.039 156.195 199.614C159.801 198.036 165.619 193.1 163.27 188.786C160.899 184.43 155.065 182.237 150.626 180.717C140.992 177.44 129.059 177.477 119.825 182.005C113.178 185.264 111.261 190.046 106.976 195.429C103.47 199.834 95.529 205.227 89.7666 205.891C90.5581 204.955 91.7605 204.795 93.0498 204.353L93.1412 204.145C92.1849 204.352 91.2255 204.544 90.2634 204.722L89.8883 204.379C91.0335 203.88 92.4102 203.663 93.0457 202.905C91.1266 202.693 89.5083 203.767 87.545 203.642C86.4317 202.721 80.4005 202.711 78.5324 202.525C52.5826 199.95 60.8476 175.273 84.132 177.65C85.5903 177.826 89.5195 178.415 90.8286 178.449C92.3497 177.416 95.0967 178.407 97.149 177.699C105.4 176.682 111.547 174.734 114.817 166.265Z" fill="white"/>
<path d="M105.236 191.146C107.06 187.579 108.764 184.641 111.739 181.882C124.3 170.232 144.279 170.813 158.916 177.955C165.9 181.363 172.659 188.432 168.415 196.653C167.94 197.57 166.688 199.394 165.8 200.022C162.373 200.878 159.892 203.572 156.946 203.155C160.413 201.686 164.641 199.107 166.286 195.645C171.713 184.219 154.877 178.089 146.935 176.1C135.498 173.236 122.051 175.664 113.299 183.733C110.749 186.084 109.086 189.005 107.619 192.073C106.989 192.626 106.736 192.838 105.938 192.77L105.236 191.146Z" fill="white"/>
<path d="M107.618 192.073C109.086 189.005 110.748 186.084 113.298 183.733C122.051 175.664 135.498 173.236 146.935 176.1C154.876 178.089 171.713 184.219 166.286 195.645C164.641 199.107 160.413 201.686 156.945 203.155C150.937 204.665 144.313 204.897 138.394 202.902L139.289 202.141C140.154 202.322 141.025 202.472 141.901 202.594C148.653 203.552 163.998 201.361 165.199 192.534C166.598 182.241 147.674 177.899 140.197 177.229C131.252 176.428 120.299 178.239 113.424 184.739C111.35 186.636 109.92 190.251 107.618 192.073Z" fill="#A37A7A"/>
<path d="M114.816 166.265L115.387 166.308C115.905 179.048 100.028 180.661 90.8281 178.449C92.3493 177.416 95.0962 178.407 97.1485 177.699C105.4 176.682 111.546 174.734 114.816 166.265Z" fill="#A37A7A"/>
<path d="M132.695 199.731C134.937 200.605 136.999 201.403 139.288 202.141L138.394 202.902C136.891 202.447 134.063 201.033 132.526 200.312L132.695 199.731Z" fill="white"/>
<path d="M110.844 109.989C98.2001 116.513 80.9744 114.448 70.0896 105.118C55.9351 92.9839 61.5819 74.7564 72.3631 62.4368C79.9335 53.7858 89.4746 48.7686 99.8205 44.1603C101.096 43.5921 103.655 41.892 104.822 41.821L105.038 42.6357C104.996 43.4058 104.905 43.6203 105.319 44.212C103.607 45.2156 100.215 46.6325 98.995 47.4346L99.2172 48.1789C96.8064 50.2899 89.0437 52.947 87.0627 56.451C85.8859 57.6361 82.309 60.2185 80.8205 61.3475C76.7971 65.6492 74.1925 68.3074 71.3545 73.5359C62.2106 90.3802 71.7718 103.566 88.8738 108.225C94.5019 109.079 99.1656 109.277 104.781 108.35L105.484 108.867C105.08 109.501 104.931 109.523 104.246 109.899L104.819 110.362C107.421 110.618 108.908 107.452 110.844 109.989Z" fill="#A37A7A"/>
<path d="M110.844 109.989C98.2001 116.513 80.9744 114.448 70.0896 105.118C55.9351 92.9839 61.5819 74.7564 72.3631 62.4368C79.9335 53.7858 89.4746 48.7686 99.8205 44.1603C101.096 43.5921 103.655 41.892 104.822 41.821L105.038 42.6357L104.94 42.7227C102.755 44.6307 94.2294 48.8509 91.2455 50.2848C78.2489 56.5306 64.8101 70.1783 63.6591 85.3416C63.1972 91.0079 65.03 96.6226 68.7458 100.925C75.0951 108.287 83.7227 111.032 93.1269 111.695C97.0735 111.996 101.042 111.544 104.819 110.362C107.421 110.618 108.908 107.452 110.844 109.989Z" fill="white"/>
<path d="M77.5466 61.5634C78.6687 62.1425 78.7595 61.9984 80.2888 61.5294C80.4675 61.4733 80.6446 61.4124 80.8203 61.3475C76.7969 65.6493 74.1923 68.3074 71.3543 73.5359C62.2104 90.3802 71.7716 103.566 88.8736 108.225C94.5017 109.079 99.1654 109.277 104.781 108.35L105.484 108.867C105.079 109.501 104.931 109.523 104.246 109.899C99.0774 111.614 89.7697 110.782 84.6221 109.106C81.0143 108.481 75.4266 104.697 72.7643 102.202C59.7605 90.0165 66.6937 72.7019 77.5466 61.5634Z" fill="white"/>
<path d="M98.9951 47.4346L99.2174 48.1789C96.8065 50.2899 89.0438 52.947 87.0628 56.451C85.886 57.6361 82.3091 60.2185 80.8206 61.3475C80.6449 61.4124 80.4678 61.4733 80.2891 61.5294C78.7598 61.9984 78.669 62.1425 77.5469 61.5633C83.0466 55.4783 91.7095 50.9815 98.9951 47.4346Z" fill="white"/>
<path d="M105.319 44.212C115.556 39.6822 121.637 30.6094 121.241 19.4355C121.201 18.3191 121.175 14.2393 123.175 15.2548C124.111 17.3868 123.689 20.7702 123.907 23.1286C125.946 45.2085 150.598 45.1062 162.853 56.7297L162.493 57.2963C164.335 59.1132 165.237 60.262 166.45 62.4677L166.052 62.6866C166.347 63.071 166.423 63.1305 166.771 63.4435C167.409 64.4723 168.083 65.617 168.793 66.5856C167.92 68.2629 168.029 67.561 168.309 69.3885C163.8 62.1299 157.726 57.2389 150.913 52.3777C137.612 44.4336 128.021 44.5509 122.522 28.0288C118.501 42.0973 108.801 45.5735 96.5078 51.2694C93.3149 52.7488 90.1819 54.8635 87.0625 56.451C89.0434 52.947 96.8062 50.2899 99.217 48.179L98.9948 47.4346C100.215 46.6326 103.607 45.2156 105.319 44.212Z" fill="white"/>
<path d="M150.913 52.3777C152.993 52.3478 155.413 54.2606 157.518 54.6341C159.081 54.9111 161.366 57.0907 162.493 57.2963C164.335 59.1132 165.237 60.262 166.45 62.4677L166.052 62.6866C166.347 63.071 166.424 63.1305 166.771 63.4435C167.409 64.4723 168.083 65.617 168.793 66.5856C167.92 68.2628 168.029 67.561 168.309 69.3885C163.8 62.1299 157.726 57.2388 150.913 52.3777Z" fill="white"/>
<path d="M104.781 108.35C114.979 105.457 122.257 100.74 127.569 91.2706C131.088 85.1944 133.505 75.3624 125.987 71.2493C120.89 68.4606 107.524 69.9962 104.788 75.2186C101.976 80.5858 110.43 90.3825 113.566 94.2645C114.061 94.878 114.388 95.781 114.415 96.5386L113.934 97.0831C112.751 97.01 111.244 95.2899 110.419 94.3682C97.8567 80.336 97.9539 66.2858 120.593 67.4601C128.369 67.8631 134.384 72.6135 133.406 81.4766C131.634 94.9293 122.121 103.886 110.844 109.989C108.908 107.452 107.421 110.618 104.819 110.362L104.246 109.899C104.931 109.523 105.08 109.501 105.484 108.867L104.781 108.35Z" fill="white"/>
<path d="M126.083 199.106C130.196 198.011 130.269 199.985 132.527 200.312C134.064 201.033 136.891 202.447 138.395 202.902C144.313 204.897 150.937 204.665 156.945 203.155C159.891 203.572 162.372 200.878 165.8 200.022C161.017 205.445 154.136 206.906 147.211 206.822C139.078 206.724 132.745 203.335 126.083 199.106Z" fill="white"/>
<path d="M126.083 199.106C124.045 198.185 119.443 195.507 119.714 193.034L120.323 192.724C121.356 192.939 130.979 197.865 132.572 198.713L132.09 199.408L132.696 199.731L132.527 200.312C130.269 199.985 130.196 198.011 126.083 199.106Z" fill="white"/>
</svg>
